<svg xmlns="http://www.w3.org/2000/svg" width="512" height="512"><path d="M318.06 0c-85.92 0-158.956 56.168-184.353 133.708C56.168 159.105 0 232.14 0 318.06 0 425 87 512 193.94 512c85.92 0 158.956-56.168 184.353-133.708C455.832 352.895 512 279.86 512 193.94 512 87 425 0 318.06 0zM193.94 465.455c-81.273 0-147.394-66.12-147.394-147.394 0-56.066 31.468-104.915 77.666-129.828l-.1 5.706c0 106.938 87 193.94 193.94 193.94a200.36 200.36 0 0 0 5.706-.09c-24.912 46.2-73.76 77.667-129.827 77.667zm193.85-141.688l.1-5.706c0-106.938-87-193.94-193.94-193.94a200.36 200.36 0 0 0-5.706.09c24.913-46.198 73.762-77.666 129.828-77.666 81.273 0 147.394 66.12 147.394 147.394-.001 56.065-31.47 104.914-77.667 129.827z" fill="#fff"/></svg>